<svg width="66" height="66" viewBox="0 0 66 66" fill="none" xmlns="http://www.w3.org/2000/svg">
<g filter="url(#filter0_d_2_391)">
<circle cx="33" cy="29" r="20" fill="white"/>
<path d="M40 28.325C40.3728 28.325 40.675 28.6272 40.675 29C40.675 29.3728 40.3728 29.675 40 29.675V28.325ZM24.5227 29.4773C24.2591 29.2137 24.2591 28.7863 24.5227 28.5227L28.8184 24.227C29.082 23.9634 29.5094 23.9634 29.773 24.227C30.0366 24.4906 30.0366 24.918 29.773 25.1816L25.9546 29L29.773 32.8184C30.0366 33.082 30.0366 33.5094 29.773 33.773C29.5094 34.0366 29.082 34.0366 28.8184 33.773L24.5227 29.4773ZM40 29.675H25V28.325H40V29.675Z" fill="#0B223E"/>
</g>
<defs>
<filter id="filter0_d_2_391" x="0" y="0" width="66" height="66" filterUnits="userSpaceOnUse" color-interpolation-filters="sRGB">
<feFlood flood-opacity="0" result="BackgroundImageFix"/>
<feColorMatrix in="SourceAlpha" type="matrix" values="0 0 0 0 0 0 0 0 0 0 0 0 0 0 0 0 0 0 127 0" result="hardAlpha"/>
<feOffset dy="4"/>
<feGaussianBlur stdDeviation="6.5"/>
<feComposite in2="hardAlpha" operator="out"/>
<feColorMatrix type="matrix" values="0 0 0 0 0.0517882 0 0 0 0 0.323449 0 0 0 0 0.654167 0 0 0 0.28 0"/>
<feBlend mode="normal" in2="BackgroundImageFix" result="effect1_dropShadow_2_391"/>
<feBlend mode="normal" in="SourceGraphic" in2="effect1_dropShadow_2_391" result="shape"/>
</filter>
</defs>
</svg>
