<svg width="40" height="40" viewBox="0 0 40 40" fill="none" xmlns="http://www.w3.org/2000/svg">
<circle cx="20" cy="20" r="20" fill="#0B223E"/>
<g clip-path="url(#clip0_12_608)">
<path d="M21.833 19.9989V27.0024C21.8697 27.269 21.778 27.5534 21.5672 27.7401C21.4824 27.8225 21.3817 27.8878 21.2709 27.9324C21.16 27.977 21.0411 28 20.9211 28C20.801 28 20.6822 27.977 20.5713 27.9324C20.4604 27.8878 20.3597 27.8225 20.2749 27.7401L18.4327 25.9537C18.3327 25.8589 18.2567 25.743 18.2106 25.615C18.1645 25.4871 18.1495 25.3505 18.1669 25.216V19.9989H18.1394L12.8601 13.4398C12.7113 13.2545 12.6441 13.0196 12.6733 12.7865C12.7025 12.5533 12.8257 12.3409 13.0159 12.1955C13.1901 12.0711 13.3825 12 13.5842 12H26.4157C26.6174 12 26.8098 12.0711 26.984 12.1955C27.1742 12.3409 27.2974 12.5533 27.3266 12.7865C27.3558 13.0196 27.2886 13.2545 27.1398 13.4398L21.8605 19.9989H21.833Z" fill="white"/>
</g>
<defs>
<clipPath id="clip0_12_608">
<rect width="16" height="16" fill="white" transform="translate(12 12)"/>
</clipPath>
</defs>
</svg>
