<svg width="272" height="209" viewBox="0 0 272 209" fill="none" xmlns="http://www.w3.org/2000/svg">
<g filter="url(#filter0_d_9_601)">
<path d="M111.625 149.549H55.657V139.519H55.619V119.713H98.0703C96.3889 115.733 94.5461 108.441 96.009 96.9434H55.619V79.2922H55.657V52.1851H111.834C114.627 48.4968 117.743 44.9872 121.21 41.7318C122.302 40.6968 123.423 39.7088 124.563 38.7397V28.8227H30V172.911H124.563V162.966C123.233 161.884 121.932 160.764 120.678 159.598C117.344 156.493 114.333 153.124 111.625 149.539M176.608 96.9152V96.934H140.028C137.995 106.955 141.718 115.855 143.732 119.704H187.523V119.666H217.169V145.287C209.304 148.156 197.516 151.026 184.065 151.026C157.021 151.026 136.294 133.939 132.238 109.636C131.516 104.809 131.535 100.237 131.716 96.9434H131.64C133.397 69.4599 153.915 49.9834 186.544 49.9834C205.79 49.9834 224.617 59.4112 224.617 59.4112L233.517 37.6859C233.517 37.6859 214.681 26 182.194 26C139.999 26 105.185 57.52 103.836 97.9596C103.817 98.4112 103.808 98.8817 103.798 99.3709C103.798 99.7191 103.77 100.058 103.77 100.406C103.77 100.604 103.779 100.792 103.789 100.98C103.789 106.089 104.283 112.779 106.144 119.704H106.163C114.513 152.324 144.245 175 185.718 175C220.276 175 242 158.6 242 158.6V96.9058H176.608V96.9152Z" fill="#0B223E"/>
</g>
<defs>
<filter id="filter0_d_9_601" x="0" y="0" width="272" height="209" filterUnits="userSpaceOnUse" color-interpolation-filters="sRGB">
<feFlood flood-opacity="0" result="BackgroundImageFix"/>
<feColorMatrix in="SourceAlpha" type="matrix" values="0 0 0 0 0 0 0 0 0 0 0 0 0 0 0 0 0 0 127 0" result="hardAlpha"/>
<feOffset dy="4"/>
<feGaussianBlur stdDeviation="15"/>
<feComposite in2="hardAlpha" operator="out"/>
<feColorMatrix type="matrix" values="0 0 0 0 0 0 0 0 0 0 0 0 0 0 0 0 0 0 0.1 0"/>
<feBlend mode="normal" in2="BackgroundImageFix" result="effect1_dropShadow_9_601"/>
<feBlend mode="normal" in="SourceGraphic" in2="effect1_dropShadow_9_601" result="shape"/>
</filter>
</defs>
</svg>
