<svg width="40" height="40" viewBox="0 0 40 40" fill="none" xmlns="http://www.w3.org/2000/svg">
<circle cx="20" cy="20" r="19.5" fill="white" stroke="#0B223E"/>
<g clip-path="url(#clip0_50_36)">
<path fill-rule="evenodd" clip-rule="evenodd" d="M18.6468 12.022C18.6524 11.7692 18.5627 11.5142 18.376 11.3154C17.9979 10.9128 17.365 10.893 16.9625 11.2711L11.3154 16.575C10.9128 16.9531 10.893 17.5859 11.2711 17.9885C11.6492 18.391 12.282 18.4109 12.6846 18.0328L16.6471 14.3111V27.9558C16.6471 28.5081 17.0948 28.9558 17.6471 28.9558C18.1993 28.9558 18.6471 28.5081 18.6471 27.9558V12.0442C18.6471 12.0368 18.647 12.0294 18.6468 12.022ZM22.3529 11.0884C22.9052 11.0884 23.3529 11.5361 23.3529 12.0884V25.6889L27.3154 21.9672C27.718 21.5891 28.3508 21.609 28.7289 22.0115C29.107 22.4141 29.0872 23.0469 28.6846 23.425L23.0376 28.7289C22.7469 29.0019 22.3218 29.0761 21.9558 28.9178C21.5899 28.7594 21.3529 28.3988 21.3529 28V12.0884C21.3529 11.5361 21.8007 11.0884 22.3529 11.0884Z" fill="#0B223E"/>
</g>
<defs>
<clipPath id="clip0_50_36">
<rect width="18" height="18" fill="white" transform="translate(11 11)"/>
</clipPath>
</defs>
</svg>
